# Blender 3.3.20
# www.blender.org
o Low_polyish.005_<STL_BINARY>.004
v -1.840886 0.361081 -0.020125
v -1.898220 0.361097 -0.020125
v -1.980361 0.347847 -0.020473
v -2.054232 0.309425 -0.021484
v -2.112266 0.249695 -0.023056
v -2.148574 0.174722 -0.025028
v -2.147271 0.129758 -0.026213
v -0.966282 -0.420400 -0.040690
v -0.472835 -0.552566 -0.044169
v -0.304877 -0.585944 -0.045046
v -0.134541 -0.597087 -0.045340
v 0.036064 -0.585907 -0.045046
v 0.203751 -0.552565 -0.044170
v 0.357208 -0.511469 -0.043089
v -2.143798 0.010329 -0.029353
v -2.103195 -0.062370 -0.031266
v -2.064218 -0.098063 -0.032204
v 1.433376 -0.223206 -0.035508
v 1.696778 -0.152642 -0.033653
v 1.772692 -0.118606 -0.032758
v 1.834090 -0.062379 -0.031280
v 1.864584 -0.007793 -0.029844
v -2.041770 -0.118612 -0.032746
v -1.965864 -0.152648 -0.033641
v 1.874709 0.010333 -0.029368
v 1.890372 0.092130 -0.027216
v 1.888142 0.109041 -0.026772
v -1.722138 0.361081 -0.020125
v 1.879504 0.174740 -0.025044
v 1.843184 0.249700 -0.023074
v 1.823991 0.269423 -0.022554
v 1.785125 0.309417 -0.021502
v 1.711266 0.347842 -0.020490
v 1.629120 0.361086 -0.020139
vn -0.0000 0.0263 -0.9997
vn 0.0001 0.0264 -0.9997
vn -0.0001 0.0263 -0.9997
vn -0.0002 0.0262 -0.9997
vn 0.0002 0.0263 -0.9997
vt 0.402100 0.474100
vt 0.402100 0.471200
vt 0.401600 0.467100
vt 0.400300 0.463400
vt 0.398300 0.460500
vt 0.395900 0.458700
vt 0.394400 0.458700
vt 0.376400 0.518500
vt 0.372200 0.543500
vt 0.371100 0.552000
vt 0.370800 0.560600
vt 0.371200 0.569200
vt 0.372300 0.577700
vt 0.373700 0.585400
vt 0.390400 0.458900
vt 0.388000 0.461000
vt 0.386900 0.463000
vt 0.383400 0.639700
vt 0.385800 0.653000
vt 0.386900 0.656800
vt 0.388800 0.659900
vt 0.390600 0.661400
vt 0.386200 0.464100
vt 0.385100 0.468000
vt 0.391200 0.661900
vt 0.393900 0.662700
vt 0.394500 0.662600
vt 0.402100 0.480100
vt 0.396700 0.662100
vt 0.399100 0.660300
vt 0.399800 0.659300
vt 0.401100 0.657300
vt 0.402300 0.653600
vt 0.402800 0.649400
s 1
f 31/31/1 22/22/1 19/19/1
f 18/18/1 34/34/1 19/19/1
f 13/13/1 12/12/1 9/9/1
f 11/11/1 10/10/1 12/12/1
f 9/9/1 8/8/1 28/28/1
f 24/24/1 23/23/2 17/17/1
f 17/17/1 16/16/1 7/7/1
f 15/15/1 7/7/1 16/16/1
f 6/6/3 5/5/1 7/7/1
f 4/4/1 3/3/1 7/7/1
f 14/14/1 13/13/1 9/9/1
f 3/3/1 2/2/1 7/7/1
f 1/1/1 28/28/1 24/24/1
f 33/33/1 32/32/1 31/31/1
f 31/31/1 30/30/4 29/29/1
f 27/27/1 26/26/5 25/25/3
f 31/31/1 29/29/1 27/27/1
f 14/14/1 9/9/1 28/28/1
f 5/5/1 4/4/1 7/7/1
f 17/17/1 7/7/1 24/24/1
f 8/8/1 24/24/1 28/28/1
f 12/12/1 10/10/1 9/9/1
f 34/34/1 33/33/1 31/31/1
f 21/21/1 20/20/1 22/22/1
f 25/25/3 22/22/1 27/27/1
f 31/31/1 27/27/1 22/22/1
f 2/2/1 24/24/1 7/7/1
f 24/24/1 2/2/1 1/1/1
f 34/34/1 31/31/1 19/19/1
f 22/22/1 20/20/1 19/19/1
f 14/14/1 28/28/1 34/34/1
f 34/34/1 18/18/1 14/14/1
